# xmcd CD database file
#
# Track frame offsets:
#	150
#	5452
#	20386
#	37314
#	54513
#	78327
#	92810
#	111587
#	143372
#	166289
#	198971
#	219252
#	234456
#	257798
#	274409
#	296343
#	317888
#
# Disc length: 4649 seconds
#
# Revision: 3
# Processed by: cddbd v1.5.1PL2 Copyright (c) Steve Scherf et al.
# Submitted via: CDex 1.51
#
DISCID=ef122711
DTITLE=Schorsch and de Bagasch - Sek‰nd H‰nd Blues
DYEAR=2006
DGENRE=Blues
TTITLE0=Sek‰nd H‰nd Intro 01
TTITLE1=Fesche Mama 02
TTITLE2=Dia geht's guat 03
TTITLE3=Du woaﬂt ned wer I bin 04
TTITLE4=Da Nachbar 05
TTITLE5=Pantsching Boi 06
TTITLE6=51er 07
TTITLE7=Du woanst nia 08
TTITLE8=Trommen von Afrika 09
TTITLE9=Wudumond 10
TTITLE10=Sek‰nd H‰nd Blues 11
TTITLE11=Gmahte Wiesn 12
TTITLE12=De warn gschead 13
TTITLE13=Zeit zum Ausziagn 14
TTITLE14=Bloﬂ in meim Hirn 15
TTITLE15=Bevor I geh 16
TTITLE16=Seiwe oide Gschicht (Bonus-Track) 17
EXTD=YEAR: 2006
EXTT0=
EXTT1=
EXTT2=
EXTT3=
EXTT4=
EXTT5=
EXTT6=
EXTT7=
EXTT8=
EXTT9=
EXTT10=
EXTT11=
EXTT12=
EXTT13=
EXTT14=
EXTT15=
EXTT16=
PLAYORDER=
